<svg xmlns="http://www.w3.org/2000/svg" version="1.1" id="Layer_1" x="0" y="0" viewBox="0 0 50 50" enable-background="new 0 0 50 50" xml:space="preserve">
  <path id="Pinterest_1" fill="none" stroke="#000000" stroke-miterlimit="10" d="M25 2C12.3 2 2 12.3 2 25s10.3 23 23 23 23-10.3 23-23S37.7 2 25 2zM27.5 33.6c-2.1 0-4.1-1.1-4.8-2.4 -1.1 4.4-1.4 5.4-1.4 5.4 -0.5 1.4-1.6 3.5-1.9 4.1 -0.3 0.6-2.4 0.2-2.2-0.8 0-1 0-3 0.3-4.4 0 0 0.3-1.6 2.5-10.5 -0.6-1.3-0.6-3-0.6-3 0-2.9 1.6-5.1 3.8-5.1 1.7 0 2.7 1.3 2.7 2.9 0 1.7-1.1 4.4-1.7 6.8 -0.5 2.1 1.1 3.8 3 3.8 3.6 0 6.2-4.8 6.2-10.3 0-4.3-2.9-7.5-8.1-7.5 -5.9 0-9.5 4.4-9.5 9.4 0 1.7 0.5 2.9 1.3 3.8 0.3 0.5 0.5 0.6 0.3 1.1 -0.2 0.3-0.3 1.3-0.5 1.6 -0.2 0.5-0.5 0.6-1 0.5 -2.7-1.1-4-4.1-4-7.5 0-5.7 4.6-12.4 13.8-12.4 7.5 0 12.2 5.4 12.2 11.1C38 27.9 33.9 33.6 27.5 33.6z"/>
</svg>