<svg xmlns="http://www.w3.org/2000/svg" version="1.1" id="Layer_1" x="0" y="0" viewBox="0 0 50 50" enable-background="new 0 0 50 50" xml:space="preserve">
  <path id="Newswire_1" fill="none" stroke="#000000" stroke-miterlimit="10" d="M25 2C12.3 2 2 12.3 2 25s10.3 23 23 23 23-10.3 23-23S37.7 2 25 2zM38.5 38.2c0 1.4-1.3 2.7-2.7 2.7 -0.6 0-1.3-0.3-1.7-0.8l0 0c0 0 0 0-0.2-0.2 -0.2-0.2-0.2-0.2-0.3-0.3L16.9 19.3v18.9c0 1.4-1.3 2.7-2.7 2.7s-2.7-1.3-2.7-2.7V11.8c0-1.4 1.1-2.7 2.7-2.7 0.5 0 1 0.2 1.4 0.5 0.3 0.2 0.6 0.3 1 0.6l16.7 20.5V11.8c0-1.4 1.3-2.7 2.7-2.7 1.4 0 2.7 1.3 2.7 2.7v26.3H38.5z"/>
</svg>