<svg xmlns="http://www.w3.org/2000/svg" version="1.1" id="Layer_1" x="0" y="0" viewBox="0 0 50 50" enable-background="new 0 0 50 50" xml:space="preserve">
  <g id="Google_1">
    <path fill="none" stroke="#000000" stroke-miterlimit="10" d="M22.1 29.1c-0.3 0-0.6 0-1 0 -3.2 0-7.8 1-7.8 4.9 0 3.6 4 5.1 7.1 5.1 2.9 0 5.9-1.1 5.9-4.4C26.4 32.1 23.9 30.6 22.1 29.1zM24.4 18.3c0-2.9-1.6-7.6-5.1-7.6 -1.1 0-2.2 0.5-2.9 1.4 -0.8 0.8-1 1.9-1 3 0 2.9 1.6 7.3 5.1 7.3 1 0 2.1-0.5 2.7-1.1C24 20.6 24.4 19.4 24.4 18.3zM25 2C12.3 2 2 12.3 2 25s10.3 23 23 23 23-10.3 23-23S37.7 2 25 2zM28.3 36.4c-2.1 3.3-6 4.4-9.7 4.4 -2.9 0-6.3-0.8-7.9-3.5 -0.5-0.8-0.6-1.6-0.6-2.5 0-2.2 1.3-4 3.2-5.1 2.2-1.4 5.1-1.7 7.8-1.9 -0.6-1-1.3-1.6-1.3-2.9 0-0.6 0.2-1.1 0.5-1.6 -0.5 0-0.8 0-1.3 0 -3.6 0-6.7-2.7-6.7-6.5 0-2.1 1-4.1 2.5-5.6 1.7-1.6 4.6-2.2 7.3-2.2h7.9l-2.7 1.7H25c1.7 1.4 2.9 3.2 2.9 5.6 0 4.9-4.4 5.6-4.4 7.9 0 2.5 5.9 3.3 5.9 8.7C29.3 34.2 28.8 35.3 28.3 36.4zM40.1 24.5h-4.1v4.1h-2.1v-4.1h-4v-2.1h4v-4.1h2.1v4.1h4.1V24.5z"/>
  </g>
</svg>