<svg xmlns="http://www.w3.org/2000/svg" version="1.1" id="Layer_1" x="0" y="0" viewBox="0 0 50 50" enable-background="new 0 0 50 50" xml:space="preserve">
  <path id="Tumblr_1" fill="none" stroke="#000000" stroke-miterlimit="10" d="M25 2C12.3 2 2 12.3 2 25s10.3 23 23 23 23-10.3 23-23S37.7 2 25 2zM28.6 40.9c-7 0.2-9.5-4.9-9.5-8.4V22.1H16V18c4.8-1.7 6-6 6.2-8.6 0-0.3 0.2-0.3 0.2-0.3s0 0 4.6 0v8.1h6.3V22h-6.3v9.8c0 1.3 0.5 3.2 3 3.2 0.8 0 1.9-0.3 2.5-0.5L34 39C33.6 39.9 30.9 40.9 28.6 40.9z"/>
</svg>