<svg xmlns="http://www.w3.org/2000/svg" xmlns:xlink="http://www.w3.org/1999/xlink" version="1.1" id="Layer_1" x="0" y="0" viewBox="0 0 50 50" enable-background="new 0 0 50 50" xml:space="preserve">
  <path id="LinkedIn_1" fill="none" stroke="#000000" stroke-miterlimit="10" d="M25 2C12.3 2 2 12.3 2 25s10.3 23 23 23 23-10.3 23-23S37.7 2 25 2zM16.3 40.2H9.5V19.8h6.8V40.2zM12.9 16.9L12.9 16.9c-2.4 0-3.8-1.6-3.8-3.5 0-2.1 1.6-3.5 3.8-3.5 2.4 0 3.8 1.6 3.8 3.5S15.3 16.9 12.9 16.9zM40.9 40.2H34V29.3c0-2.7-1-4.6-3.5-4.6 -1.9 0-3 1.3-3.5 2.5 -0.2 0.5-0.2 1.1-0.2 1.7v11.4h-6.8c0.2-18.6 0-20.5 0-20.5h6.8v2.9c1-1.4 2.5-3.3 6.2-3.3 4.4 0 7.8 2.9 7.8 9.2C40.9 28.6 40.9 40.2 40.9 40.2z"/>
</svg>