<svg xmlns="http://www.w3.org/2000/svg" version="1.1" id="Layer_1" x="0" y="0" viewBox="0 0 50 50" enable-background="new 0 0 50 50" xml:space="preserve">
  <path id="Twitter_Circle_1_" fill="none" stroke="#000000" stroke-miterlimit="10" d="M25 2C12.3 2 2 12.3 2 25s10.3 23 23 23 23-10.3 23-23S37.7 2 25 2zM37.5 18.5c0 0.3 0 0.6 0 0.8 0 8.6-6.5 18.6-18.6 18.6 -3.6 0-7.1-1.1-10-2.9 0.5 0 1 0.2 1.6 0.2 3 0 5.9-1 8.1-2.9 -2.9 0-5.2-1.9-6-4.4 0.5 0 0.8 0.2 1.3 0.2 0.6 0 1.1-0.2 1.7-0.2 -3-0.6-5.2-3.2-5.2-6.3 0 0 0 0 0-0.2 0.8 0.5 1.9 0.8 3 0.8 -1.7-1.1-2.9-3.2-2.9-5.4 0-1.3 0.3-2.4 1-3.3 3.2 4 8.1 6.5 13.5 6.8 -0.2-0.5-0.2-1-0.2-1.4 0-3.6 2.9-6.5 6.5-6.5 1.9 0 3.5 0.8 4.8 2.1 1.4-0.3 2.9-0.8 4.1-1.6 -0.5 1.6-1.6 2.9-2.9 3.6 1.3-0.2 2.5-0.5 3.8-1C39.9 16.4 38.8 17.5 37.5 18.5z"/>
</svg>